<?xml version="1.0" encoding="utf-8"?>
<!-- Generator: Adobe Illustrator 17.1.0, SVG Export Plug-In . SVG Version: 6.00 Build 0)  -->
<!DOCTYPE svg PUBLIC "-//W3C//DTD SVG 1.1//EN" "http://www.w3.org/Graphics/SVG/1.1/DTD/svg11.dtd">
<svg version="1.1" id="Layer_1" xmlns="http://www.w3.org/2000/svg" xmlns:xlink="http://www.w3.org/1999/xlink" x="0px" y="0px"
	 viewBox="0 0 773.8 1028.8" enable-background="new 0 0 773.8 1028.8" xml:space="preserve">
<g>
	<g>
		<path fill="#3E3B39" d="M283,532.7c0-0.7-0.1-1.4-0.3-2.1c-0.7-2.9-1.3-3.1-4.3-2.2c-5.9,1.7-15.6,3.2-19.7,3
			c-4.1-0.3-14.7-3.8-18.5-5.5c-2.2-1-4.1-0.6-6,0.9c-3.3,2.6-12,6.6-16.2,7.3c-8.9,1.6-16.6-0.2-18.7-0.6c-4.4-0.8-8.3-0.5-11.6,3
			c-0.9,0.9-16,14.7-20.1,16.6c-6.7,3.1-17.9,5-25.5,4.2c-7-0.7-13.8-1.9-20.2-4.8c-4.8-2.2-9.2-5.2-13.6-7.9
			c-6.7-4.2-12-9.8-16.7-16.2c-1.5-2.1-3.1-2.1-4.4,0.2c-0.5,0.8-0.7,1.8-0.9,2.7c-0.3,1.4-2.6,9.3-3.1,12c-1,5.3-1.9,21.4-2.9,26.7
			c-0.3,1.4-3.7,34.6-4.3,37.8c-0.3,1.8-0.4,3.6-0.5,5.4c-0.8,5-7.7,7.5-12.3,6.3c-3.6-1.7-6.4-4.5-8.2-7.9
			c-1.1-2.1-1.9-26.9-0.5-40.9c1.7-17.4,5.9-46.3,6-48.2c0.1-1.8,0.6-3.6,0.9-5.3c0.6-3.4-0.4-4.5-3.8-4.1
			c-14.3-1.8-21.5-15.7-23.7-19.8c-5.1-9.5-3.2-21.2,0.4-30.5c2.5-6.3,7.4-14.7,17.8-19c8.7-3.6,17.2-5,20.1-5.3
			c3.6-0.4,4.2-0.9,5-4.4c1.4-6.5,2-13,1.9-19.6c-0.1-6.2,1.6-29.7,2.1-35.2c0.5-7.1,1.1-14.1,1.7-21.2c0.2-3.2-0.3-24-2.8-30.9
			c-1-2.7-3.2-4.1-5.4-5.5c-4.5-3.7-9,10.5-10.2,16.1c-1,4.5-4.7,5.8-8,7.5c-1.4,0.7-2.8-0.1-3.8-1.3c-3.9-4.6-5.4-9.7-3.5-15.7
			c1.4-4.5,5.8-15.7,6.5-17c2.2-4,6.3-6.3,10.9-7.4c4.2-1,11.2-0.6,14.1,0.7c2.9,1.3,10.4,6.2,13.6,11c2.5,3.8,4.6,8.9,5.3,13.5
			c2,44-3.1,95.4-3.1,97.3c-0.1,5.9-0.3,18.3-0.2,18.6c0.7,2.3,2.1,3.7,4.5,1.4c1.7-1.8,3.2-3.9,4.7-5.9c3.3-4.2,18.8-22.1,30.6-47
			c11.8-24.9,14-47.7,23-51.9c3.2-2.5,8.5-0.6,10.1,3.5c1.2,3,1.6,6,0.7,9.4c-1.1,4.4-10.4,36.2-11.7,39.5
			c-1.9,5-15.3,33.6-19.8,39.7c-4.5,6.1-16.7,22.5-18.2,26c-0.8,1.9-2,3.5-2.9,5.3c-0.7,1.3-8.2,15.7-8.9,20.6
			c-1,8.1,1.7,15.1,1.9,16.6c0.1,0.9,3.7,12.3,4,13.2c1,3,2.1,4.2,4.3,6.6c2.9,3.2,5.8,6.4,8.8,9.6c3.5,3.7,21.7,8,28.3,5.5
			c13.6-5,17.4-10,19.2-12.5c1.1-1.5,0.7-2.9-1.4-4.7c-2.4-2.1-4.2-4.6-5.7-7.3c-3-5.6-5.4-11.5-6.6-17.9
			c-1.4-7.1-4.5-21.3,0.3-33.8c2.3-4.5,5-8.7,8.3-12.6c4.8-5.7,10.8-7.1,17.8-6c5.4,0.9,10.6,2.5,14.6,6.4c2.1,2,3.7,4.7,5.1,7.3
			c3.2,8.2,4.7,18,4.6,23.1c-0.1,3.3-2.1,25.3-3.2,28.4c-0.8,2.4-1.4,4.8-2.1,7.2c-0.5,1.7,0.1,2.9,1.8,3.2
			c5.2,0.8,10.2,1.3,14.9-2.1c2.6-1.9,3.7-3.5,2.8-6.6c-4.9-15.2-6.5-29.8-0.5-44.9c2.8-5.1,8.6-18.8,20.5-17.7
			c23,2.2,21.7,26.5,22.4,30.2c0.3,1.7,0,3.6-0.2,5.4c-1,8.6-4,16.5-8.4,23.9c-1.2,2-3.1,3.7-4.4,5.7c-0.7,1-1.3,2.4-1.3,3.6
			c0,2.3,1.1,3.1,3.3,3.5c4.8,0.9,9.2-0.3,13.4-2.6c1-0.6,11.2-3.4,17.3-10c5.1-5.6,10.5-21.4,10.1-23.9c-0.2-1.1,0.2-8.2,0.2-10.7
			c0-4.2,2.7-22.2,3.4-27.1c0.2-1.2,6.5-14.5,10-19.7c1.6-2.3,9.1-8.9,17.7-10.9c9.4-2.2,20,0.3,22.6,1.5
			c1.1,0.5,10.7,4.3,17.4,10.2c6.1,5.3,9.4,12.7,10.3,13.9c2.2,3.2,3.1,7,4,10.7c0.4,1.8,2.2,10.8,1.3,20.2
			c-1.2,13-5.3,27.1-5.8,28.1c-0.8,1.7-1.9,3.3-2.7,5.1c-1.2,2.7-0.7,4.5,1.5,6.5c7.7,7.3,18,9.8,27.1,8.7
			c9.1-1.1,16.3-2.7,25.4-6.1c7.8-2.9,12.2-8.8,12.8-9.4c2.4-2.1,5.5-3.6,8.5-2.1c6.4,5.2,4,13-0.6,16.1c-0.9,0.6-9.7,8.4-16.7,10.6
			c-5,1.6-14.9,4.5-24.7,5.4c-10.5,0.9-21-0.4-25.4-1.4c-5.3-1.2-9.9-3.5-14.6-5.8c-3.1-1.5-3.7-1.7-5.9,1
			c-1.5,1.9-5.4,5.7-10.2,7.8c-5.8,2.5-12.6,3.2-13.2,3.3c-2.9,0.6-3.6,1.5-3,4.5c6.9,32.8,6.2,54.7,4.2,64.9
			c-2.3,11.7-8.1,25.1-21.5,26c-16.4,1.1-26.8-13.7-30.6-24.9c-3.8-11.2-5.9-34.3-6.2-37.1C283.2,568.2,283.1,536.3,283,532.7z
			 M366,459.6c-0.2-1.6,0.1-14.5-3.6-19.6c-5.2-7.2-21.1-11.1-22.5-11.2c-3.2-0.3-6.5,0.6-9.6,2.8c-1.2,0.8-8.8,5.3-11.7,13
			c-3.1,8.1-1.6,19.6-1.9,21.4c-0.4,2.2,1,3.3,3.2,3.2c0.6,0,15-0.9,21.6,1.2c4.6,1.5,14.8,7.7,18.6,10.5c3.1,2.3,4,2.1,5.1-1.7
			C365.5,478.7,366.3,462.2,366,459.6z M312.5,530c-9.6-6.2-14.8,12.4-15,23.3c-0.2,11.6,1.9,27.1,4.5,35.4
			c2.5,8.2,7.6,32.2,20.1,25.9c5.4-2.7,4.7-20.4,4.9-22.8c0.2-2,2-26.3-0.9-43C324.4,538.9,314.6,531.3,312.5,530z M336.3,523.4
			c1,0,6.4,0.3,10.4-2.1c4.5-2.7,5.9-7,6.7-12.1c0.8-5.3-3.2-12.2-4.5-13.9c-2.7-3.5-5.8-6.5-9.7-8.9c-5.1-3.1-10.2-4.8-15.9-2.5
			c-5.6,1.9-5,8.3-4.3,11.4c0.9,4,5,18,6.3,21C326.9,520.3,328.6,524,336.3,523.4z M191.2,462.4c-1.2-1.9-4.7-2.7-6.3-2.4
			c-5.4,1-7,12.6-6.4,17.8c0.1,1,0.1,1.9,0.2,2.9c0.3,4.5,0.1,9.1,1.4,13.5c0.9,3.2,1.7,6.5,3.1,9.6c1.5,3.3,3.8,3.4,6,0.6
			c4-4.4,6.2-18.3,5.4-24.4C193.7,474,191.7,463.2,191.2,462.4z M73.2,464.5c-0.3-1.1-0.5-2.6-1-4.1c-1-3.8-7.4-1.6-9.6-0.1
			c-3.1,2.2-6.2,4.9-9.1,10.7c-1.8,5.3-2.2,11.2-1,15.7c1.8,4.1,8.8,9.4,13.8,5.2c0.7-0.6,4.6-5.6,5.3-7.9
			C74.1,476.2,72.8,470.1,73.2,464.5z M241.4,494.3c0.6,2,2.2,2.5,4,1.6c0.8-0.4,1.6-1.1,2.2-1.8c2.9-3.3,4.4-7.4,5.5-11.6
			c0.3-1.2,0-2.6,0-3.9c0-1.2-0.3-7.8-2.8-9.2c-2-1.1-3.4-0.9-5.5,1c-2.2,2-5.5,7.9-5.9,13.7C238.6,488.4,240.9,492.8,241.4,494.3z"
			/>
		<g>
			<path fill="#B11A29" d="M395.5,803.2c-0.3-8-0.4-16-1-24c-0.4-5.8,0.2-33.4,0.4-33.9c2.3-5.8-0.6-55.4,0.3-61.4
				c1-6.9,1.3-50.4,1.2-51.7c-0.2-3.1,1-5.5,3.7-6.8c2.7-1.3,5.5-2.4,8.4-3.2c3.6-1,32.1-0.9,37.5,1.4c5.4,2.3,12.8,3.5,17.8,6.5
				c3.1,1.9,17,12.5,22.7,27.4c4.5,11.7,1.6,28.6,0.9,30c-2.4,4.8-4.7,9.6-9.3,12.8c-3.1,2.2-3.3,3.4-1.2,6.6
				c1.5,2.4,3.8,4.3,5.3,6.7c4.3,7,12.8,28.8,13.4,32.2c0.9,5.8,1.6,11.6,2,17.5c0.2,2.6-3.1,28-5.4,32.4
				c-1.5,2.8-9.6,21.4-26.1,31.1c-16.2,9.5-38.2,9-43.2,10c-3.2,0.7-9.2,0.1-12.4,0.5c-4,0.5-7.8-0.3-11-2.9c-1-0.8-1.8-2.1-2.2-3.4
				c-2.2-7.3-1.8-22.5-1.8-23.2C395.7,808,395.5,804.8,395.5,803.2z M415.5,781.5c1.4,5.4,0.2,19.5,1.7,24.9c0.6,2,2,3.8,4.1,3.9
				c3.5,0.1,10-1,13.4-1.7c6.3-1.5,12.3-4.2,18.1-7.1c7.4-3.7,13.6-8.7,18.8-15.2c2.5-3.2,6.7-33.7,0.7-47.2
				c-3.9-8.8-26.3-14.9-29.7-16.8c-4.7-2.7-21.1-1.6-24.1-1.4c-3.7,0.2-4.3,0.6-4.3,4.5c0.1,5.6,0.3,11.2,0.4,16.8
				C414.8,743.7,414.7,778.3,415.5,781.5z M446.2,691.1c1.9-0.2,19.3-5.5,18.3-22.8c-1-17.3-16.3-21.1-20.6-21.8
				c-5-0.9-10.1-1.8-15.1-2.5c-2.1-0.3-10.6-0.2-12.7-0.4c-3.1-0.2-4.1,0.4-4.5,3.5c-0.8,6.7,0.4,43,0.4,43.3
				C412,694,441.3,691.7,446.2,691.1z"/>
			<path fill="#B11A29" d="M134.8,786c-0.1,1.9-1.4,25.8-1.2,27.6c0.4,6-0.9,22-0.9,24c-0.1,2.4,0.5,5-0.4,7c-1,2.5-2.1,5.6-5.2,6.4
				c-3.1,0.8-10.8-0.3-12.9-2.6c-2.7-2.9-3.8-6.4-3.9-10.3c-0.1-4.3,0.3-53.3,1.5-56.3c-1-5,1.5-34.4,1.4-39.4
				c-0.1-5.4,1.4-82.9,3-86.8c0.3-0.8-0.9-42.7-0.9-45.8c0-2.8-0.5-7.2,1.5-9.9c1.8-2.4,12.3-1.6,17.8-1.5
				c5.5,0.1,48.8,6.1,56.1,9.3c4.3,1.9,15.2,9.6,16.9,10.3c5,2.2,8.8,5.9,12.4,9.6c4,4.1,7.6,8.6,11.2,13c2.5,3.1,5,6.3,7,9.7
				c1.5,2.5,2.4,5.5,3.2,8.4c1.8,6.1,3.5,12.3,3.4,18.8c-0.1,8.2-0.7,16.4-3.8,24c-2.3,5.7-5.5,11.1-10,15.7
				c-4.2,4.2-8.5,8.1-13.7,11c-0.9,0.5-1.6,1.1-2.5,1.7c-3.1,2.2-3.9,4.6-2.7,8.7c2.8,9.2,6,18.3,9.1,27.4
				c2.3,6.7,16.8,52.5,17.7,54.8c1.1,2.6,3.6,17,3.5,18.6c-0.4,4.1-3.4,6.2-7.4,5.2c-3.4-0.9-6.3-2.5-7.6-6.1
				c-1.7-4.6-3.4-9.1-5.1-13.7c-1.9-5-3.8-10-5.6-15.1c-2.9-8.1-10-28.4-10.8-30.4c-1.8-4.7-8.9-25-9.1-25.8c-1.1-3.3-2-5-2.9-8.3
				c-1-3.8-3.5-5.8-7.2-5.7c-5.3,0.1-42.1,4.9-44.1,5.1c-2.1,0.2-3.4,1.1-4.1,3.2c-0.9,2.7-1.6,5.4-1.7,8.4
				C136.5,761.5,135,780.3,134.8,786z M136.9,706.9c0,1.8,0,3.3,0,4.8c0,3.3,2.1,6.1,5.4,6.7c3.2,0.6,6.4,1,9.6,1.4
				c8.2,0.9,16.4,1.6,24.7,2.4c4.5,0.4,17.6,0.5,27.3-5.4c7.9-4.8,15.3-13.5,17.1-17.3c1.5-3,3.6-25,2.8-30.8
				c-1.1-8-7-14.2-11.4-20.5c-2.3-3.4-11-12.4-22.4-17.1c-13-5.5-29-6.6-31.3-7.2c-4.6-1.4-8.9-0.9-13.1,1c-2.9,1.3-5.5,3.3-5.8,6.8
				c-0.5,6.5-1.1,13-1.3,19.5c-0.2,7.1-0.6,34.8-0.8,40.8C137.6,697,137.2,702.1,136.9,706.9z"/>
			<path fill="#B11A29" d="M352.7,745.8c0.3-6,1-39,0.7-49.5c-0.1-3.2-0.8-12.2-0.5-13.6c0.3-1.4-3.6-57-3.1-61.3
				c0.1-0.8,0.7-1.9,1.3-2.1c2.6-1.1,6.6-1.4,9.4-1.7c4.8-0.4,7.7,1.9,9,6.7c0.7,2.4,0.9,4.9,1.2,7.4c0.5,5.5,0.8,11,1.1,16.5
				c0.1,1.7-0.4,3.6,0.1,5.2c0.1,0.4,2.4,48,2.4,54.6c0,8.4-1,59-1.4,62.3c-0.5,3.3,0.8,21-4.8,34.9c-5.6,13.9-18.2,24.1-19.3,24.8
				c-12.9,8.9-37.5,6.4-41.8,5.9c-2.3-0.2-13.4-0.3-22.5-8.1c-7-6.1-10.7-9.8-16.1-25.2c-5.4-15.5-6.8-81.7-7.1-85.9
				c-0.2-3.2-3.6-61.1-3.4-65.9c0-1.9,0.1-30.3,0.3-32.5c0.3-3,1.8-4.5,4.7-4.9c4.1-0.6,9.4,1,11.4,4.4c0.9,1.5,1.9,3.1,2.2,4.7
				c0.9,5.1,2.8,10.1,3,15.4c0.1,3.7,2.9,36.5,2.9,39.7c-0.1,8.1,0.1,43.4,0.1,46.4c0,4.1,1.3,21.4,2,25.9
				c0.1,0.7,2.9,22.2,3.4,28.2c0,0.2,3.3,21.6,5.7,26.3c2.8,5.4,12.8,11.3,14.8,12c2.8,0.9,20,3.5,31.2-5.7
				c6.2-5.1,11.8-18.1,13.6-34.4C354.5,764.7,352.6,748.1,352.7,745.8z"/>
			<path fill="#B11A29" d="M518.4,841c-5.7,0.1-10-5.2-8.9-10.8c2-10.7,6.2-20.6,10.3-30.5c2.5-6.1,15.7-48,16.5-51.3
				c2-8.3,5.6-16,9.1-23.8c3.4-7.8,3.3-7.8-1.5-14.7c-2.2-3.1-15.1-25.9-16.2-28.6c-2.8-6.4-11.6-18.8-12-19.3
				c-1.9-2.6-9.4-16.2-9.8-16.9c-1.3-2.1-10.6-18.5-10.8-18.7c-1.5-3.1-3.5-6.7-1.3-9.5c2.5-3.2,11.7-7.8,16.3-7.2
				c2.8,0.3,8.6,8.8,9.4,10.1c1.7,2.4,17.3,28.8,17.6,29.3c2.7,4.6,16.2,28.2,17.2,29.8c0.9,1.3,1.8,2.7,3,3.8
				c2.3,2.1,3.8,1.9,5.3-0.9c1.4-2.6,13.1-28.8,15.4-33.3c3.3-6.4,24.8-48.5,27.1-52.2c0.5-0.9,1.7-1.5,2.7-1.8
				c3-0.9,15.3,6.4,15.1,7.9c-0.4,2.8-6.9,17.3-8.3,21c-2.4,6.3-23.4,53.1-23.8,54.4c-0.4,1.3-18.1,53.5-21.8,60.6
				c-1.6,3.2-15.5,40.6-17.7,45.7c-5.1,12.1-18.5,47.6-20.9,53.6C529.4,840.7,521.1,841.2,518.4,841z"/>
		</g>
		<g>
			<path fill="#3E3B39" d="M543.4,965c1,8.1-0.4,16.3-2.8,23.9c-1.7,5.6-11.6,14.3-25.7,18.3c-14.1,4-29.4,2-41.7-4.7
				c-12.3-6.7-23.1-26.5-22.9-40.7s12.3-33.9,25.2-39c12.9-5.1,23.9-8.8,24.8-9c2.4-0.4,3.8-2.5,3.1-4.8
				c-2.4-7.4-19.2-49.2-20.1-52.6c-1.3-4.5,4.4-10.6,8.7-11.2c2.5-0.3,4.8,0.4,6.9,2.1c3.1,2.5,31.4,68,36.9,85.7
				C541.1,950.8,542.9,960.5,543.4,965z M511.9,985.7c3.8-0.9,9.5-6.6,10-7.3c2.4-4.1,1.2-10.9,0.4-15.4c-0.4-2.7-7-22.6-8.5-25.6
				c-0.5-1-4.3-5-13-3.3c-4.9,0-8.5,3.6-12.9,5.2c-0.5,0.2-14.3,10.9-16.8,15.4c-2.5,4.6-4.8,13.8-2.1,19.5c4,8.3,11.7,11.1,20,12.2
				C494.4,987.2,509.8,986.2,511.9,985.7z"/>
			<path fill="#3E3B39" d="M285.9,877.4c6.9,0.9,13.8,2.2,19.5,6.3c7.4,5.3,12.3,12.3,11.9,21.9c0,0.6-0.6,10.7-2.4,14.7
				c-0.6,1.4-2.1,2.7-3.5,3.5c-14.3,6.3-51.9,7.5-54,7.8c-1.1,0.1-2,1-1.7,2.2c-0.4,5.2,0.3,19.8,10,21.4c2.3,0.4,17.4,3.9,27.2,1.2
				c12.3-3.4,19.7-13.2,22-14.5c4-2.4,7.1-1.8,10.3,1.8c2.8,3.2,2.9,6.6-0.1,10.2c-3.4,4.1-14.5,14.4-24.7,17.9
				c-21.8,5.1-42,0.7-48.3-3.5c-4.1-2.7-8.1-5.7-11.6-9.1c-4.2-4.1-5.9-9.5-7.2-15.2c-1.9-8,3.9-35.5,5.6-41.6
				c1.2-4.3,5.2-14.5,12.8-18.5C264.5,876.9,283.7,877.1,285.9,877.4z M284.8,894.5c-16.9,2.1-20.6,2.5-24.3,5.9
				c-0.3,0.3-1.4,10.8-1.1,10.9c2.1,1.2,14,2.9,26.6,0.6c12.6-2.4,15-5.4,15.4-6.7C301.6,904.4,301.7,892.4,284.8,894.5z"/>
			<path fill="#3E3B39" d="M148.8,892.3c0.6-2.6,1.4-3.2,4-3.4c2.2-0.2,4.1,0.7,5.8,2c2.4,1.8,4.8,3.6,6.9,5.7
				c1.8,1.7,3.3,3.8,3.5,6.4c0.3,5.2,0.2,27,0.6,32.7c0.4,5.3,3.2,21.5,16.9,18.9s13.5-21.9,12.7-27.7c-0.6-4.1-0.5-8.3-1.1-12.4
				c-0.9-5.8-4.6-27.5-4.7-32.7c-0.4-7.2,12.3-9.4,15.5,3.6c1.4,7.9,3,15.8,5.3,23.5c1.4,4.7,2.5,9.5,3.5,14.3
				c1.7,8.6,1.6,17-1.5,25.4c-6.9,18.6-23.9,22.4-30.5,22.4s-18.8-5.7-24.1-10.9c-1.5-1.4-2.8-0.9-4.2,0.1
				c-3.9,2.8-7.8,5.6-11.8,8.3c-2.1,1.4-15.1,5.3-22.5,2.6c-11.1-4.1-19.9-15.2-22.7-22c-4-10-7.5-55.7-7.3-58.9
				c0.1-1.1-0.4-9.4,4.8-11.5c1.9-0.8,3.5-0.4,5.1,0.8c2.9,2.3,4.6,5.3,5.3,8.8c0.7,3.4,1.1,6.9,1.3,10.4c0.6,10,0.7,20,2.8,29.8
				c1.2,5.6,3.8,10.7,6.3,15.9c1.8,3.7,4.6,5.1,8.6,6.2c14.6,2.8,19.6-10.3,20.6-16.3C148.2,932.5,147.9,895.8,148.8,892.3z"/>
			<path fill="#3E3B39" d="M386.9,884.6c0.8-6.3,4-8.4,8.3-6.8c3.2,1.2,5.7,3.1,6.6,6.7c0.4,1.5,0.9,3,1.5,4.4
				c0.8,2,1.5,3.8,3.6,3.1c2.5-0.7,5-2.9,7.3-3.9c9.3-3.9,17-5.1,26.7-3.6c4.1,0.7,10,2.9,13.5,5.6c3.2,2.4,6.2,5,9.6,7.1
				c2.6,1.6,5.6,5.7,5,8.3c-0.8,3.7-4,6.3-7.9,6.3c-6.8-0.4-10.6-15-32.2-15.2c-8.1-0.1-23,11.1-23.8,23.2
				c-0.1,1.2,3.5,43.7,3.9,46.5c0.7,4.4,1.3,8.7,1.7,13.1c0.3,2.8,0.5,7-5.3,8c-8.7,0.1-10.9-7.1-11.1-10.1c-0.4-5.2-4-33.7-4.3-43
				c-0.3-7-2.5-32.3-2.9-38C386.8,891.9,387,887.3,386.9,884.6z"/>
			<path fill="#3E3B39" d="M349.2,960.4c-0.6-8-5.7-37.7-6.8-44.3c-0.5-3.2-1.2-6.4-1.6-9.6c-0.6-5.8-1.1-11.7-0.2-17.5
				c1.1-6.7,6.5-8.8,12-4.7c2.6,1.9,4.1,4.4,3.7,7.6c-0.9,6.6,0.3,13,1.4,19.3c1.5,8.2,3.1,16.3,4.5,24.5c1.2,7.4,3.7,46.2,4.7,49.4
				c1,3,0.8,6.1-1.6,8.8c-2.1,2.4-4.9,3.3-8,2.4c-5.4-1.6-6.9-5.9-7.4-10.7C349.8,982.9,349.6,965,349.2,960.4z"/>
			<path fill="#3E3B39" d="M562.6,961.4c0.8-8.1,4.7-14.1,12.2-17.4c4.2-1.9,11.5-1.1,15,3.7c1.1,1.5,2.9,2.4,4.3,3.7
				c4.2,3.8,6.8,8.4,6.8,14.2c0,1.3-0.3,2.7-0.8,3.9c-2,4.3-4.5,7.9-9.2,9.8c-4.5,1.8-9,2.7-13.8,2c-5.4-0.8-9.6-3.3-11.9-8.7
				C563.6,968.9,562.1,965.5,562.6,961.4z"/>
			<path fill="#3E3B39" d="M346.7,872.8c-0.9-0.1-1.8-0.1-2.7-0.2c-5.7-0.3-9.7-4.4-9.7-10.1c0-0.8,0.1-1.6,0-2.4
				c-0.6-4.5,1.6-7.9,4.5-11c3.3-3.6,8.9-4.2,13.5-1.3c4.3,2.8,6.8,6.8,7.9,11.7c0.8,3.6-0.6,6.6-2.9,9.4
				C354.5,872.3,350.9,873.2,346.7,872.8z"/>
		</g>
		<path fill="#3E3B39" d="M440.9,31c0,0.1-7.6-0.4-13.6,2.8c-5.3,2.8-9,9.2-10.4,11.7c-2.2,4-5.1,7.6-6.9,11.8
			c-1.5,3.3-6.1,21.3-2.8,32.1c4.8,15.6,18.6,24.9,20.2,26.1c0.6,0.5,21.2,2.8,26,0.7c4.6-2,23.8-2.8,34.6-16.2
			c8.3-10.3,9.3-33.3,8.3-38c-1.1-4.6-11.1-19-23.9-25.4C458.9,29.9,442.8,31.2,440.9,31z M413.8,332.2
			c-2.4-6.8-15.6-63.9-16.8-79.5c-1.2-15.6,3.1-55.8,3.3-58.7c0.6-10.7,7.2-47.3,7.4-48.4c0.3-1.4,4.5-16.1,5.4-19.3
			c0.5-1.9-0.2-3.3-1.6-4.4c-7.2-6-11.9-14-17.1-21.7c-4.2-6.1-4.9-13-5.5-20c0-0.2,2-28.6,12.2-44.3s25.4-17.1,27.6-17.8
			c4.4-1.4,18.9-2.1,31.3,0.1c8.6,1.5,30.2,9.7,38.4,19.3c5.6,5,13,23.1,13.4,25.9c0.4,2.8,0.5,31.6-16.8,49.7
			c-12.5,13-30.2,15.6-32.6,16.5c-3.4,1.2-4.6,4.1-5.1,7.2c-0.5,3-0.9,6.2-0.6,9.2c0.8,10.4,1.9,20.9,2.9,31.3
			c0,9.4,15.5,48.6,22.3,61.5c3.2,6,9,12.6,12,18.7c2.9,5.9,17.5,24.6,18.9,26.3c0.6,0.7-16.1,3.1-24.3,1.1c-2.9-0.7-6.9-7.5-7.6-9
			c-0.2-0.3-0.4-0.6-0.5-1c-1.8-3.6-21.8-32.2-32-63.6s-10.4-65.4-12.4-72.2c-0.9-3.1-4.2-3.8-5-3.8c-2,0-3.2,0.9-3.8,2.7
			c-1.6,4.5-3.2,9-4.6,13.6c-1.7,5.4-6.8,51.4-5.9,91.5c0.7,29.4,9.3,65.7,10.2,68.7C428.3,317.4,414.8,335,413.8,332.2z
			 M749.3,67.9c-0.8-4.2-1.2-8.6-2.6-12.6c-1.2-3.4-5.5-14.3-15.3-23.2c-4-3.7-18.8-12.1-31-10.3c-17.3,2.6-32.9,17.2-36.2,21.9
			c-6.7,9.6-9.3,24.1-7.9,29.8c3.3,14.1,19.7,25.9,22.5,28c2.4,1.8,19,11.7,31.8,10.9c16-0.9,28.7-13.2,31.5-17.6
			C748.3,85.1,749.2,70.6,749.3,67.9z M725.2,323.2l-18-17.7c0,0,15.2-36.6,17.4-45.2c1.7-6.3,4.5-29.5,5.3-41s-2.8-30.8-3.7-37.3
			c-0.5-3.7-6.5-36.5-11.1-46.3c-0.4-1-1.6-1.6-2.5-2.4c-2.5,2.3-2.2,19.6-3.2,25.5c-2.4,13-5.5,49.3-14.5,69.4
			s-20.6,41.2-25.2,46.5c-2.3,2.7-4.6,6.4-4.6,6.4l-24,3.9c4.3-6.1,21.8-30.4,23.7-34.2c4.2-8.2,8.5-16.4,12.5-24.7
			c5.6-11.9,8.8-24.6,10.8-37.6c1.4-9.4,2.4-18.8,3.6-28.2c0.3-2.4,1.3-4.7,1.4-7c0.4-6.5,0.7-12.9,0.6-19.4
			c-0.1-4.1-1.8-7.7-5.9-9.6c-9.7-4.5-18.6-10.4-27-17c-6.2-4.8-11.5-10.6-15.7-17.3c-5.1-8.2-6.7-17.2-5-26.6
			c0.9-5.1,5.9-23.5,16.7-34.4c13.6-13.8,33.8-20,36.7-20.7c9.7-2.3,19.2-1.5,28.6,2.8c2,0.9,19,9.4,27,19.3
			c11.5,14.4,14.7,31.9,15.1,34.2c0.7,4.4,0.7,22.5-5.7,33.9c-7.1,12.6-20.8,18.6-22.8,20.4c-2.7,2.4-4.4,4.8-3.4,8.4
			c1.6,5.9,3.2,11.8,5,17.6c1,3.3,6.7,27.5,8.4,50.8c1.6,22.1-0.7,43.5-0.9,45.7c-0.7,5.5-3,23-7.3,39.2
			C732.7,298.4,725.2,323.2,725.2,323.2z"/>
		<path fill="#3E3B39" d="M442.1,84.3c-4.8-0.5-7.9-3.2-10.1-6.7c-1.2-2-0.4-9.9,2.2-11.9c1.7-1.3,8.5-3.6,10.4-2.5
			c0.9,0.5,2,0.8,2.9,1.4c7.7,4.7,6.9,12.3,1.7,17C447.5,83.2,444.6,83.5,442.1,84.3z"/>
		<path fill="#3E3B39" d="M699.6,76.3c-4.8,0.6-10.4-5.6-12.2-10.3c-2.1-5.7,0.4-9.7,5.5-11.9c4-1.8,8.4-2,12.5,0.2
			c1.9,1,8.6,8.2,7.8,11.4C711.3,72.5,705.5,76.2,699.6,76.3z"/>
		<path fill="#B11A29" d="M527.5,380c-3.9,0.4-6.1,3.2-5.8,7.2c0.2,2.5,2,20.8,4.5,27.2c2.4,6.2,15.2,73.1,16.8,79.6
			c2.4,9.6,13.3,55.2,18.3,64.6c0.9,3.9,6.1,5.6,8.9,2.9c0.8-0.8,6.2-11.1,6.6-12.2c2.7-6.9,11.8-43.9,13.3-55.4
			c0.9-7.2,22.7-103.5,20.3-109.1c-1.3-3-2.5-5.1-5.7-5.3C592.8,378.6,530.8,379.7,527.5,380z M535.4,528.2
			c-0.9-2.9-8.5-41.3-8.7-41.8c-3.2-9.1-15.9-88.7-17.8-98.8c-0.6-3.3-2.5-5.8-5.9-6.2c-7.1-1-98.6-6.9-100.3-6.5
			c-5.6,1.4-6.7,5-2.8,9c1.9,1.9,14.8,16.9,19.2,22.7c7.1,9.3,13.9,18.9,21.2,28.1c9.2,11.6,18.9,22.9,28,34.6
			c5,6.4,60.3,64.5,64.4,68.4C534.2,536.2,536.1,530.3,535.4,528.2z M601,536c3.8-0.1,8.1-0.9,11-4.1c2.9-3.2,51.4-67.7,56.3-75
			c6.1-9,12.1-18.2,18.4-27.1c3.9-5.5,37.3-47.7,39.1-50.6c1.8-2.9,0-5.7-3.4-5.5c-3.2,0.2-6.4,0.7-9.7,0.8
			c-7.3,0.4-74.8,3.2-77.8,3.3c-2.9,0.1-4.7,1.5-5.4,4.4c-1.6,6.8-6.9,29.2-8.1,33.6c-3.3,11.8-13.6,66.4-15,74.7
			C605,498.9,601,532,601,536z M432.7,305c4.8-3.7,20.7-17.4,24.3-19.8c1.1-0.7,2.8-0.7,4.2-0.8c4.9-0.2,9.8-0.2,14.7-0.4
			c6.2-0.3,34-1.9,35.1-1.8c9.8,0.8,85,1.7,87.2,1.7c13.3-0.2,26.6-0.3,40-0.5c3,0,29.7-5.3,33.2-4.2c4.8,1.4,16.4,8.7,17.9,9.8
			c1.2,0.8,12.1,9.9,13.1,10.5c6.6,4.7,20.5,20.9,22.8,23.8c4.2,5.3,22.4,28.9,27.2,35.4c3.3,4.5,2.9,10.5-0.7,14.6
			c-5.5,6.3-79.1,113.7-83.3,119.3c-6.7,8.9-13.7,17.7-20.5,26.5c-3.7,4.7-72.2,86.9-73.7,87.4c-1.1,0.4-2.4,0.4-3.4,0.8
			c-3,1.4-26.8-21.7-29-23.8c-2-1.8-87.9-109.1-91.6-113.4c-3.2-3.7-65.8-83.4-68.5-86.8c-4.7-5.8-3.2-15.9,2.8-20.1
			c3.7-2.6,22.1-25.4,27.4-31.7C414.6,328.5,428.2,308.5,432.7,305z M656.9,362.9c15.6-1.9,62.6-3.3,69.6-4.3c4-0.6,5.1-1.8,4.1-5.7
			c-1.5-6-5.2-10.6-9.2-15c-5.6-6.2-29.2-29.5-36.1-34.2c-2.1-1.4-4.7-1.8-6.7-0.1c-2.5,2.1-4.7,4.8-6.9,7.2
			c-1.7,1.9-27,40.1-32.5,47.8c-1.6,2.3-0.6,3.8,2.3,4.1C644.6,362.9,655,363.2,656.9,362.9z M485,365c2.3-0.2,4.8-0.2,7.2-0.8
			c3.9-1,5.1-4,2.8-7.4c-2.3-3.4-8.7-11.7-9.3-12.6c-2.2-3.3-16.9-23-21.6-30c-3.2-4.8-6.6-5.3-10.6-1.3
			c-4.5,4.4-33.9,37.1-35.7,39.7c-0.5,0.7-5.8,8.3,3.9,8.2c7.8,0.6,32.8,1.8,40.3,2.3c0.5,0,0.9,0.1,1.2,0.1
			C470.4,363.5,477.5,364.3,485,365z M586,300.1c-2.9,0.6-3.5,2.6-2,5.1c0.5,0.9,20.7,40.1,25.9,46.7c3.4,4.3,5.6,4.9,9.4,1.1
			c4.2-4.1,28-43.3,32.1-49.1c1.2-1.7,1.1-2.8-0.7-3.8c-0.8-0.4-1.8-0.8-2.7-0.9C637.7,297.3,589.6,299.3,586,300.1z M547,304.7
			c0-3.5-1.5-5.2-4.3-5.5c-7.8-0.8-60.7-0.6-62.2,0.1c-2.1,0.9-2.7,2.5-1.9,4.7c2.4,6.9,25.7,34,31.3,40.3c2.6,2.9,4,2.8,7,0.1
			c4.3-3.9,24.8-30,25.6-31.6C544.1,309.8,547.1,307.4,547,304.7z M586.7,362.7c4.9-0.4,5.8-1.8,3.8-6.5
			c-1.9-4.3-12.5-30.3-19.6-36.9c-2.3-2.1-5-3.1-7.9-1.3c-1.6,1-8.3,8.5-10.4,10.8c-1.1,1.3-17.4,24.9-19.1,28.6
			c-1.8,3.7-0.2,6.1,4,6.2C541.6,363.6,582.5,363,586.7,362.7z"/>
	</g>
</g>
</svg>
